<svg xmlns="http://www.w3.org/2000/svg" width="120" height="120" viewBox="0 0 120 120"><rect width="100%" height="100%" fill="#23262c"/><path fill="#bdbb91" d="M46.74 74.73q0-.93.35-1.77.34-.84.94-1.44t1.44-.96 1.8-.36 1.79.36q.82.36 1.43.96.62.6.98 1.44t.36 1.77q0 .96-.36 1.79-.36.82-.98 1.42-.61.6-1.43.94-.83.35-1.79.35t-1.8-.35q-.84-.34-1.44-.94t-.94-1.42q-.35-.83-.35-1.79m0-21.39q0-.93.35-1.77.34-.84.94-1.44t1.44-.96 1.8-.36 1.79.36q.82.36 1.43.96.62.6.98 1.44t.36 1.77q0 .96-.36 1.79-.36.82-.98 1.42-.61.6-1.43.95-.83.34-1.79.34t-1.8-.34q-.84-.35-1.44-.95t-.94-1.42q-.35-.83-.35-1.79M66.84 60q0-6.18-1.49-12.16-1.48-5.99-4.27-11.21-.33-.63-.37-1.09-.05-.47.07-.82.12-.34.38-.59.25-.26.58-.44l3.3-1.98q2.22 3.42 3.78 6.86 1.56 3.43 2.55 6.94t1.44 7.12q.45 3.62.45 7.37t-.45 7.35-1.44 7.11-2.55 6.96-3.78 6.87l-3.3-2.01q-.33-.18-.58-.43-.26-.26-.38-.61-.12-.34-.07-.8.04-.47.37-1.07 2.79-5.25 4.27-11.22 1.49-5.97 1.49-12.15"/></svg>